<?xml version="1.0" standalone="no"?>
<!DOCTYPE svg PUBLIC "-//W3C//DTD SVG 20010904//EN"
 "http://www.w3.org/TR/2001/REC-SVG-20010904/DTD/svg10.dtd">
<svg version="1.0" xmlns="http://www.w3.org/2000/svg"
 width="260.000000pt" height="145.000000pt" viewBox="0 0 556.000000 360.000000"
 preserveAspectRatio="xMidYMid meet">
<metadata>
Created by potrace 1.16, written by Peter Selinger 2001-2019
</metadata>
<g transform="translate(0.000000,360.000000) scale(0.100000,-0.100000)"
fill="#000000" stroke="none">
<path d="M1107 2048 c-29 -62 -58 -124 -65 -138 -10 -21 -12 -4 -10 100 3 106
1 125 -12 125 -12 0 -16 -26 -22 -145 -4 -80 -13 -163 -19 -185 -6 -22 -47
-114 -90 -204 -43 -90 -76 -168 -72 -174 10 -16 29 16 99 162 35 74 66 132 69
130 2 -3 0 -63 -6 -134 -6 -87 -6 -132 1 -139 21 -21 28 13 37 189 l10 180 76
154 c43 84 77 162 77 172 0 43 -24 12 -73 -93z"/>
<path d="M3510 2153 c-26 -10 -71 -57 -91 -95 -25 -49 -25 -148 1 -256 35
-144 22 -238 -42 -316 -30 -36 -32 -37 -79 -31 -45 6 -49 5 -49 -14 0 -15 8
-22 34 -27 48 -9 100 11 135 52 44 49 59 84 73 161 11 64 9 77 -15 176 -39
155 -35 231 15 285 14 14 33 22 54 22 40 0 54 18 29 37 -19 13 -39 15 -65 6z"/>
<path d="M2835 2145 c-5 -2 -22 -6 -37 -9 -19 -4 -28 -13 -28 -26 0 -17 7 -20
40 -20 22 0 40 -4 40 -9 0 -4 -11 -53 -25 -107 -13 -54 -38 -164 -54 -244 -17
-80 -40 -178 -53 -217 -18 -59 -20 -75 -9 -85 26 -26 46 26 85 213 21 101 51
235 67 298 16 62 29 124 29 136 0 20 6 24 38 27 30 2 38 7 40 26 3 21 0 22
-60 21 -35 0 -67 -2 -73 -4z"/>
<path d="M1300 2061 c-20 -4 -41 -11 -48 -15 -19 -12 -14 -36 8 -36 24 0 25 6
-1 -93 -12 -45 -38 -163 -58 -262 -35 -173 -37 -180 -61 -183 -14 -2 -31 -9
-38 -15 -35 -29 90 -53 139 -27 28 16 24 40 -7 40 -25 0 -26 2 -20 33 4 17 16
79 26 137 24 133 58 294 70 342 8 30 16 37 38 40 19 2 28 9 30 26 4 24 -9 26
-78 13z"/>
<path d="M1537 2059 c-57 -33 -157 -366 -157 -524 0 -67 3 -79 25 -100 28 -29
45 -31 90 -9 65 30 111 122 155 307 48 201 38 292 -35 323 -40 16 -54 17 -78
3z m79 -47 c34 -22 35 -49 5 -199 -41 -202 -69 -282 -119 -335 -34 -36 -69
-37 -78 -2 -9 37 3 154 25 244 57 225 77 283 103 293 20 8 52 8 64 -1z"/>
<path d="M1873 2048 c-23 -25 -60 -150 -123 -410 -41 -171 -47 -218 -31 -218
15 0 42 31 36 40 -7 11 115 500 125 500 13 0 49 -338 50 -462 0 -81 8 -93 42
-65 22 17 41 73 114 326 67 233 84 311 67 311 -20 0 -30 -26 -68 -170 -21 -80
-56 -201 -79 -270 l-40 -125 -8 155 c-13 279 -32 410 -58 410 -4 0 -16 -10
-27 -22z"/>
<path d="M2384 2056 c-42 -19 -70 -50 -104 -117 -57 -112 -115 -389 -96 -463
9 -35 58 -60 104 -51 70 13 103 51 117 135 4 25 16 66 26 93 l19 48 -26 9
c-37 14 -80 12 -94 -5 -17 -20 -4 -35 31 -35 24 0 29 -4 25 -17 -2 -10 -11
-43 -20 -74 -28 -102 -85 -140 -122 -84 -22 34 -14 121 22 253 45 168 102 272
148 272 31 0 50 16 43 34 -8 19 -31 20 -73 2z"/>
<path d="M3722 2057 c-7 -7 -23 -65 -37 -128 -13 -63 -42 -181 -64 -264 -48
-184 -53 -216 -41 -235 9 -13 13 -12 30 9 11 13 20 30 20 38 0 9 12 67 27 129
l26 114 41 -7 c23 -3 42 -6 42 -7 1 -1 -12 -53 -28 -116 -29 -114 -32 -161
-13 -167 25 -7 38 23 66 153 64 293 100 460 105 477 6 20 -28 24 -44 5 -5 -7
-23 -78 -39 -158 l-29 -145 -47 -3 c-26 -2 -47 -1 -47 2 0 3 16 65 36 137 19
72 34 140 32 152 -4 25 -21 32 -36 14z"/>
<path d="M4038 2058 c-42 -11 -58 -37 -28 -45 11 -3 20 -10 20 -15 0 -5 -13
-62 -29 -126 -23 -89 -81 -377 -81 -399 0 -1 -14 -3 -30 -3 -34 0 -52 -26 -29
-41 22 -14 123 -11 144 4 22 17 12 37 -17 37 -23 0 -25 -20 17 206 14 78 36
186 48 240 21 96 23 99 52 104 22 4 30 11 30 25 0 24 -39 29 -97 13z"/>
<path d="M4255 2047 c-8 -13 -42 -150 -75 -305 -33 -155 -63 -288 -66 -297 -8
-19 25 -33 36 -16 4 7 10 39 13 72 8 68 46 230 58 244 5 5 9 -59 9 -146 0
-114 4 -160 13 -174 29 -38 34 -7 30 162 l-5 168 44 66 c46 68 75 161 63 199
-7 23 -53 50 -84 50 -11 0 -27 -10 -36 -23z"/>
<path d="M4483 2054 c-7 -19 13 -34 45 -34 12 0 22 -3 21 -7 0 -5 -26 -138
-58 -296 -31 -159 -53 -291 -48 -294 14 -9 44 26 50 60 16 90 50 277 73 400
l26 137 33 0 c34 0 61 22 50 40 -3 6 -44 10 -96 10 -73 0 -91 -3 -96 -16z"/>
</g>
</svg>
